<svg xmlns="http://www.w3.org/2000/svg" width="7.555" height="12.48" viewBox="0 0 7.555 12.48">
  <g id="Down_Small" transform="translate(0.603 11.954) rotate(-90)" fill="#3e3d3d">
    <path d="M 5.705079078674316 6.668659210205078 L 5.563659191131592 6.527239322662354 L -0.141420915722847 0.8221592307090759 L -0.2633009254932404 0.7002792358398438 L -0.1607509255409241 0.5617492198944092 L 0.3431590795516968 -0.1189907565712929 L 0.4783390760421753 -0.3016007542610168 L 0.6423290967941284 -0.1443607658147812 L 5.704081535339355 4.709011077880859 L 10.69282913208008 -0.1433707624673843 L 10.84624862670898 -0.2925907671451569 L 10.98474884033203 -0.1294307559728622 L 11.56262874603271 0.5513092279434204 L 11.68191909790039 0.6918292641639709 L 11.55157947540283 0.8221592307090759 L 5.846498966217041 6.527239322662354 L 5.705079078674316 6.668659210205078 Z" stroke="none"/>
    <path d="M 5.705079078674316 6.385819435119629 L 11.41015911102295 0.6807392239570618 L 10.83227920532227 -7.592773272335762e-07 L 5.705079078674316 4.987049102783203 L 0.5039090514183044 -7.592773272335762e-07 L -9.213256930706848e-07 0.6807392239570618 L 5.705079078674316 6.385819435119629 M 5.705079078674316 6.951509475708008 L -0.5266008973121643 0.719829261302948 L 0.4527590870857239 -0.6032107472419739 L 5.703089237213135 4.430978298187256 L 10.86020946502686 -0.5851807594299316 L 11.95366954803467 0.7029092311859131 L 5.705079078674316 6.951509475708008 Z" stroke="none" fill="#3e3d3d"/>
  </g>
</svg>
