<svg xmlns="http://www.w3.org/2000/svg" width="15.75" height="15.75" viewBox="0 0 15.75 15.75">
  <path id="Globe" d="M12.062,7.349a13.34,13.34,0,0,0-.5-3.242,8.708,8.708,0,0,0,1.48-.683,6.774,6.774,0,0,1,1.627,3.922H12.062Zm-.5,4.291a13.317,13.317,0,0,0,.5-3.242h2.615a6.8,6.8,0,0,1-1.627,3.922A8.979,8.979,0,0,0,11.563,11.64Zm-.348,1a8.2,8.2,0,0,1,1.055.458,6.875,6.875,0,0,1-1.923,1.138A7.532,7.532,0,0,0,11.216,12.637Zm-6.681,0a7.532,7.532,0,0,0,.867,1.6A6.8,6.8,0,0,1,3.479,13.1,7.8,7.8,0,0,1,4.534,12.637ZM3.688,8.4a13.34,13.34,0,0,0,.5,3.242,8.708,8.708,0,0,0-1.48.683A6.783,6.783,0,0,1,1.077,8.4H3.688Zm.5-4.291a13.317,13.317,0,0,0-.5,3.242H1.077A6.8,6.8,0,0,1,2.7,3.43,8.979,8.979,0,0,0,4.187,4.11Zm.348-1a8.2,8.2,0,0,1-1.055-.458A6.8,6.8,0,0,1,5.4,1.517,7.532,7.532,0,0,0,4.534,3.113ZM10.348,1.52a6.8,6.8,0,0,1,1.923,1.138,7.845,7.845,0,0,1-1.055.458A7.384,7.384,0,0,0,10.348,1.52ZM8.4,3.658V1.166a4.025,4.025,0,0,1,1.815,2.239A10.405,10.405,0,0,1,8.4,3.658Zm0,3.691V4.707a11.31,11.31,0,0,0,2.163-.3,12.384,12.384,0,0,1,.449,2.947H8.4Zm0,3.694V8.4h2.612a12.384,12.384,0,0,1-.449,2.947A11.31,11.31,0,0,0,8.4,11.044Zm0,1.049a10.364,10.364,0,0,1,1.815.252A4.025,4.025,0,0,1,8.4,14.584Zm-1.052,0v2.492a4.025,4.025,0,0,1-1.815-2.239A10.405,10.405,0,0,1,7.349,12.092Zm0-3.691v2.642a11.56,11.56,0,0,0-2.163.3A12.384,12.384,0,0,1,4.737,8.4H7.349Zm0-3.694V7.349H4.737A12.384,12.384,0,0,1,5.186,4.4,11.31,11.31,0,0,0,7.349,4.707Zm0-1.049a10.364,10.364,0,0,1-1.815-.252A4.013,4.013,0,0,1,7.349,1.166ZM7.875,0A7.875,7.875,0,1,0,15.75,7.875,7.874,7.874,0,0,0,7.875,0Z" fill="#19d1d1"/>
</svg>
