<svg xmlns="http://www.w3.org/2000/svg" width="22.657" height="18.409" viewBox="0 0 22.657 18.409">
  <path id="Icon_awesome-list" data-name="Icon awesome-list" d="M3.54,17.536H.708A.708.708,0,0,0,0,18.244v2.832a.708.708,0,0,0,.708.708H3.54a.708.708,0,0,0,.708-.708V18.244A.708.708,0,0,0,3.54,17.536Zm0-14.161H.708A.708.708,0,0,0,0,4.083V6.915a.708.708,0,0,0,.708.708H3.54a.708.708,0,0,0,.708-.708V4.083A.708.708,0,0,0,3.54,3.375Zm0,7.08H.708A.708.708,0,0,0,0,11.163V14a.708.708,0,0,0,.708.708H3.54A.708.708,0,0,0,4.248,14V11.163A.708.708,0,0,0,3.54,10.455Zm18.409,7.788H7.788a.708.708,0,0,0-.708.708v1.416a.708.708,0,0,0,.708.708H21.949a.708.708,0,0,0,.708-.708V18.952A.708.708,0,0,0,21.949,18.244Zm0-14.161H7.788a.708.708,0,0,0-.708.708V6.207a.708.708,0,0,0,.708.708H21.949a.708.708,0,0,0,.708-.708V4.791A.708.708,0,0,0,21.949,4.083Zm0,7.08H7.788a.708.708,0,0,0-.708.708v1.416A.708.708,0,0,0,7.788,14H21.949a.708.708,0,0,0,.708-.708V11.871A.708.708,0,0,0,21.949,11.163Z" transform="translate(0 -3.375)" fill="#fff"/>
</svg>
