<svg id="house" xmlns="http://www.w3.org/2000/svg" width="56.248" height="50" viewBox="0 0 56.248 50">
  <path id="Path_24012" data-name="Path 24012" d="M2.061,28.062H6.4V49.938A1.563,1.563,0,0,0,7.964,51.5H49.282a1.563,1.563,0,0,0,1.563-1.563V28.062h4.344a1.563,1.563,0,0,0,1.031-2.734L29.656,1.889a1.563,1.563,0,0,0-2.063,0L1.03,25.328a1.563,1.563,0,0,0,1.031,2.734Zm5.9-3.125H6.192L28.625,5.146,51.057,24.937H49.285A1.563,1.563,0,0,0,47.722,26.5V48.376H9.53V26.5a1.563,1.563,0,0,0-1.563-1.563Z" transform="translate(-0.501 -1.501)" fill="#19d1d1" fill-rule="evenodd"/>
  <path id="Path_24013" data-name="Path 24013" d="M18.3,11.5H10.377a3.169,3.169,0,0,0-3.169,3.169V27.343a3.169,3.169,0,0,0,3.169,3.169H18.3a3.169,3.169,0,0,0,3.169-3.169V14.669A3.169,3.169,0,0,0,18.3,11.5ZM10.377,27.343V14.669H18.3V27.343Z" transform="translate(13.656 19.488)" fill="#19d1d1" fill-rule="evenodd"/>
</svg>
