<svg xmlns="http://www.w3.org/2000/svg" width="13.397" height="19.701" viewBox="0 0 13.397 19.701">
  <path id="Path_25430" data-name="Path 25430" d="M201.412,5.508h.408a1.184,1.184,0,0,0,0-2.368H197.88a1.972,1.972,0,1,0-3.562-1.177,1.967,1.967,0,0,0,.4,1.184h-3.943a1.184,1.184,0,0,0,0,2.368h.388c.094,3.154,1.261,6.414,3.073,7.882h-3.863a.4.4,0,0,0-.314.15.386.386,0,0,0-.074.338l.488,1.953a1.973,1.973,0,0,0,1.906,1.5h3.508V19.7h.789V17.336h3.508a1.969,1.969,0,0,0,1.916-1.488l.488-1.953a.394.394,0,0,0-.395-.495h-3.869C200.134,11.925,201.308,8.661,201.412,5.508ZM196.288.779A1.184,1.184,0,1,1,195.1,1.963,1.184,1.184,0,0,1,196.288.779Zm-3.9,15.765a1.183,1.183,0,0,1-1.144-.9l-.368-1.465h1.946l.418,1.662a1.98,1.98,0,0,0,.338.7Zm3.508,0h-.709a1.184,1.184,0,0,1-1.15-.9l-.4-1.465h2.261Zm0-3.234c-2.04-.371-3.816-3.863-3.939-7.8h1.575c.064,2.776.789,6.471,2.364,7.016Zm0-1.7c-.742-.709-1.5-3.241-1.575-6.1h1.575ZM190.77,4.722a.395.395,0,0,1,0-.789h11.036a.395.395,0,0,1,0,.789Zm7.488.786c-.064,2.859-.829,5.391-1.575,6.1v-6.1Zm1.08,10.334.418-1.662H201.7l-.331,1.465a1.182,1.182,0,0,1-1.184.9H199A1.988,1.988,0,0,0,199.338,15.841Zm-.395-1.662-.331,1.465a1.182,1.182,0,0,1-1.184.9h-.749V14.179Zm-2.261-.829v-.789c1.538-.552,2.294-4.247,2.364-7.016h1.575C200.5,9.451,198.723,12.942,196.683,13.35Z" transform="translate(-189.6)" fill="#19d1d1"/>
</svg>
