<svg xmlns="http://www.w3.org/2000/svg" width="28.959" height="28.666" viewBox="0 0 28.959 28.666">
  <g id="Icon-Search" transform="translate(0.5 0.5)">
    <path id="Fill-1" d="M-10.431-199.161A11.384,11.384,0,0,1-21.8-210.531,11.384,11.384,0,0,1-10.431-221.9,11.347,11.347,0,0,1,.939-210.531a11.422,11.422,0,0,1-11.369,11.369Zm0-21.048a9.754,9.754,0,0,0-9.737,9.737,9.754,9.754,0,0,0,9.737,9.737,9.754,9.754,0,0,0,9.737-9.737,9.83,9.83,0,0,0-9.737-9.737Z" transform="translate(21.8 221.9)" fill="#fff" stroke="#fff" stroke-width="1"/>
    <path id="Fill-2" d="M18.029-180.746,10.1-188.617l1.283-1.283,7.871,7.929-1.224,1.224" transform="translate(8.499 208.558)" fill="#fff" stroke="#fff" stroke-width="1"/>
  </g>
</svg>
