<svg xmlns="http://www.w3.org/2000/svg" width="19.75" height="16.183" viewBox="0 0 19.75 16.183">
  <path id="Path_25432" data-name="Path 25432" d="M19.425,3.247a.472.472,0,0,0-.167-.027.5.5,0,0,0-.393.19L17.9,4.617a2.11,2.11,0,0,1-1.634.78h-.073L9.68,5.011a.491.491,0,0,0-.533.473.506.506,0,0,0,.473.533l6.521.38c.043,0,.09,0,.133,0a3.088,3.088,0,0,0,2.417-1.157l.067-.083v9.718a.391.391,0,0,1-.39.39h-.25a.39.39,0,0,1-.37-.267l-1.377-4.134a1.4,1.4,0,0,0-1.324-.954.529.529,0,0,0-.26.073,5.1,5.1,0,0,1-2.284.38c-.12,0-.243,0-.367-.007a11.421,11.421,0,0,1-2.68-.423A.476.476,0,0,0,9.3,9.915a1.393,1.393,0,0,0-1.377,1.167l-.7,4.187h-.18A.384.384,0,0,1,6.676,15L5.949,8.225a2.741,2.741,0,0,0,2.417-2.71V5.508a.263.263,0,0,0-.013-.077c0-.007,0-.017-.007-.023s0-.017,0-.023a.247.247,0,0,0-.013-.06l0-.01L6.339.413a.5.5,0,0,0-.93,0l-.8,1.917L.375,3.6a.516.516,0,0,0-.31.263.508.508,0,0,0-.013.407l.667,1.67a1.39,1.39,0,0,0,1.3.877H3.642a1.282,1.282,0,0,1,1.25.987l.79,7.348v.007a1.4,1.4,0,0,0,1.37,1.124h.23a.946.946,0,0,0,.937-.793l.707-4.237a.382.382,0,0,1,.323-.32,12.275,12.275,0,0,0,2.854.443c.14,0,.28.007.417.007a6.358,6.358,0,0,0,2.627-.44.389.389,0,0,1,.27.253l1.377,4.134a1.4,1.4,0,0,0,1.324.957h.25a1.4,1.4,0,0,0,1.4-1.4V3.724A.509.509,0,0,0,19.425,3.247ZM3.642,5.858H2.015a.442.442,0,0,1-.413-.28L1.115,4.361l3.994-1.2a.456.456,0,0,0,.283-.253l.473-1.134,1.54,3.8A1.783,1.783,0,0,1,5.719,7.285,2.236,2.236,0,0,0,3.642,5.858Z" transform="translate(-0.015 -0.1)" fill="#19d1d1"/>
</svg>
