<svg id="Chat_Bubbles_Question" data-name="Chat Bubbles Question" xmlns="http://www.w3.org/2000/svg" width="50" height="50" viewBox="0 0 50 50">
  <path id="Path_24020" data-name="Path 24020" d="M26.833,34.666a2.6,2.6,0,1,1-2.6,2.6A2.6,2.6,0,0,1,26.833,34.666Zm0-20.319a7.846,7.846,0,0,1,7.722,8.125c0,2.444-.889,3.778-3.028,5.486l-1.153.9c-1.028.806-1.375,1.25-1.444,1.861l-.042.653A2.087,2.087,0,0,1,24.75,31c0-2.375.875-3.681,2.986-5.361l1.153-.9c1.208-.958,1.5-1.431,1.5-2.264a3.686,3.686,0,0,0-3.556-3.958,3.552,3.552,0,0,0-3.556,3.931,2.083,2.083,0,1,1-4.167.042A7.708,7.708,0,0,1,26.833,14.347ZM6,26.833A20.811,20.811,0,1,1,18.028,45.722l-9.542,1.9A2.08,2.08,0,0,1,6.042,45.18l1.9-9.542A20.787,20.787,0,0,1,6,26.833ZM26.833,10.167A16.662,16.662,0,0,0,10.167,26.833,16.459,16.459,0,0,0,11.986,34.4a2.107,2.107,0,0,1,.181,1.361L10.736,42.93,17.9,41.5a2.107,2.107,0,0,1,1.361.181A16.459,16.459,0,0,0,26.833,43.5a16.667,16.667,0,1,0,0-33.333Zm-4.75,41.222a20.883,20.883,0,0,0,21.889,2.667l9.542,1.9a2.08,2.08,0,0,0,2.444-2.444l-1.9-9.542a20.883,20.883,0,0,0-2.667-21.889,25.5,25.5,0,0,1,.444,4.75,25.046,25.046,0,0,1-.417,4.6,17.3,17.3,0,0,1,.417,3.736,16.459,16.459,0,0,1-1.819,7.569,2.107,2.107,0,0,0-.181,1.361l1.431,7.167L44.1,49.833a2.107,2.107,0,0,0-1.361.181,16.751,16.751,0,0,1-11.305,1.4,25.045,25.045,0,0,1-4.6.417A25.5,25.5,0,0,1,22.083,51.388Z" transform="translate(-6 -6)" fill="#19d1d1"/>
</svg>
