<svg id="Group_2253" data-name="Group 2253" xmlns="http://www.w3.org/2000/svg" width="14.306" height="21.716" viewBox="0 0 14.306 21.716">
  <path id="Path_25396" data-name="Path 25396" d="M14.215,106.094a.981.981,0,0,0-.4-.645l-2.3-1.677-.537-2.831a.772.772,0,0,0-.038-.139A2.383,2.383,0,0,0,7.59,99.292l-2.55.825a.909.909,0,0,0-.26.128.965.965,0,0,0-.4.461l-1.261,2.966a.987.987,0,0,0,1.279,1.3,1,1,0,0,0,.537-.527l.922-2.169.353-.135-1.49,3.382c-.045.1-1.542,3.379-1.632,3.576l0,.01a.36.36,0,0,0-.014.035L.327,111.926l-.045.045-.014.014-.152.159.01.021a1.256,1.256,0,0,0,0,1.348.325.325,0,0,0-.139.118.366.366,0,0,0,.083.509,4.3,4.3,0,0,0,1.691.835h8.753a4.35,4.35,0,0,0,1.691-.835.365.365,0,0,0-.426-.593,5.468,5.468,0,0,1-1.2.686c.007-.055.01-.111.014-.166l.094-4.276v-.007a1.21,1.21,0,0,0-.014-.173.688.688,0,0,0-.01-.121.641.641,0,0,0-.014-.08l.031-.021-1.473-3.323.565-1.244a.987.987,0,0,0,.284.326l2.606,1.9a.977.977,0,0,0,.735.177.965.965,0,0,0,.641-.4A.979.979,0,0,0,14.215,106.094Zm-12.447,8.15a1.354,1.354,0,0,1-.419-.17,1.236,1.236,0,0,0,.69-.322l.024-.024,3.119-2.9.007-.007a1.328,1.328,0,0,0,.239-.315l1.407-1.816L7.829,110l.18.239.083,3.826v.073l0,.007c0,.035.007.069.01.1Zm11.688-7.838a.287.287,0,0,1-.173.107.279.279,0,0,1-.2-.049l-2.6-1.9a.269.269,0,0,1-.1-.132l-.007-.017-.007-.017a.22.22,0,0,1-.021-.062l-.336-1.781-1.591,3.51,1.358,3.056.125.281a.662.662,0,0,1,.049.18c0,.024,0,.049.007.073v.017l0,.017a.79.79,0,0,1,.007.094l-.094,4.269v.017a.463.463,0,0,1-.035.18H8.848a.534.534,0,0,1-.035-.177V114l0,0-.083-4-.322-.426-1.279-1.684-.284-.374-1.868,2.408h-.01l-.1.139a.048.048,0,0,0-.01.014l-.028.031-.017.038a.634.634,0,0,1-.118.163l-3.126,2.907-.021.017h0A.531.531,0,0,1,.8,112.46l0,0,0,0L1,112.263l0,0,2.7-2.738.028-.08a.371.371,0,0,1,.021-.059c.042-.094.97-2.131,1.632-3.573l2.19-4.976-2.252.873L4.27,104.154a.266.266,0,0,1-.146.142.262.262,0,0,1-.2,0,.27.27,0,0,1-.142-.35l1.261-2.966a.265.265,0,0,1,.114-.128l.017-.01.017-.014a.217.217,0,0,1,.069-.035l2.6-.842.024-.014a1.667,1.667,0,0,1,2.363,1.053l.007.024a.32.32,0,0,1,.01.031l.593,3.126,2.533,1.847a.259.259,0,0,1,.107.173A.254.254,0,0,1,13.456,106.406Z" transform="translate(0.078 -95.104)" fill="#19d1d1"/>
  <path id="Path_25397" data-name="Path 25397" d="M53.735,564.6a.4.4,0,0,0-.066,0,.382.382,0,0,0-.062,0,.667.667,0,1,0,.128,0Zm-.062.929a.263.263,0,1,1,.263-.263A.268.268,0,0,1,53.672,565.532Z" transform="translate(-51.818 -544.221)" fill="#19d1d1"/>
  <path id="Path_25398" data-name="Path 25398" d="M276.935,565.5a.381.381,0,0,0-.062,0,.449.449,0,0,0-.066,0,.667.667,0,1,0,.128,0Zm-.062.929a.263.263,0,1,1,.263-.263A.263.263,0,0,1,276.872,566.432Z" transform="translate(-267.283 -545.121)" fill="#19d1d1"/>
  <path id="Path_25399" data-name="Path 25399" d="M276.666.017A1.9,1.9,0,0,0,276.423,0a1.791,1.791,0,0,0-.239,3.566,1.9,1.9,0,0,0,.243.017h0a1.791,1.791,0,0,0,.239-3.566Zm.821,1.916a1.075,1.075,0,0,1-1.06.929,1.027,1.027,0,0,1-.146-.01,1.072,1.072,0,0,1,.142-2.135,1.027,1.027,0,0,1,.146.01A1.073,1.073,0,0,1,277.487,1.934Z" transform="translate(-265.113 0)" fill="#19d1d1"/>
</svg>
