<svg xmlns="http://www.w3.org/2000/svg" width="51.207" height="51.207" viewBox="0 0 51.207 51.207">
  <g id="People" transform="translate(0.25 0.25)">
    <g id="Icon-2">
      <path id="calendar" d="M14.964,36.588a.844.844,0,0,0-1.195,0L12.677,37.68l-1.093-1.093a.845.845,0,1,0-1.195,1.195l1.093,1.093-1.093,1.093a.845.845,0,1,0,1.195,1.195l1.093-1.093,1.093,1.093a.845.845,0,1,0,1.195-1.195l-1.093-1.093,1.093-1.093a.844.844,0,0,0,0-1.195Zm8.451,0a.844.844,0,0,0-1.195,0L21.128,37.68l-1.093-1.093a.845.845,0,1,0-1.195,1.195l1.093,1.093L18.84,39.968a.845.845,0,1,0,1.195,1.195l1.093-1.093,1.093,1.093a.845.845,0,1,0,1.195-1.195l-1.093-1.093,1.093-1.093a.844.844,0,0,0,0-1.195Zm16.9-8.451a.844.844,0,0,0-1.195,0L38.03,29.229l-1.093-1.093a.845.845,0,1,0-1.195,1.195l1.093,1.093-1.093,1.093a.845.845,0,1,0,1.195,1.195l1.093-1.093,1.093,1.093a.845.845,0,1,0,1.195-1.195l-1.093-1.093,1.093-1.093a.844.844,0,0,0,0-1.195Zm-8.451-8.451a.844.844,0,0,0-1.195,0l-1.093,1.093-1.093-1.093a.845.845,0,0,0-1.195,1.195l1.093,1.093-1.093,1.093a.845.845,0,1,0,1.195,1.195l1.093-1.093,1.093,1.093a.845.845,0,1,0,1.195-1.195l-1.093-1.093,1.093-1.093a.844.844,0,0,0,0-1.195Zm5.318,3.133h1.69v-1.69h-1.69Zm3.38.845a.845.845,0,0,1-.845.845H36.34a.845.845,0,0,1-.845-.845v-3.38a.845.845,0,0,1,.845-.845h3.38a.845.845,0,0,1,.845.845ZM28.734,39.721h1.69V38.03h-1.69Zm3.38-2.535v3.38a.845.845,0,0,1-.845.845h-3.38a.845.845,0,0,1-.845-.845v-3.38a.845.845,0,0,1,.845-.845h3.38a.845.845,0,0,1,.845.845Zm-3.38-5.916h1.69v-1.69h-1.69Zm3.38.845a.845.845,0,0,1-.845.845h-3.38a.845.845,0,0,1-.845-.845v-3.38a.845.845,0,0,1,.845-.845h3.38a.845.845,0,0,1,.845.845Zm-11.832-.845h1.69v-1.69h-1.69Zm3.38.845a.845.845,0,0,1-.845.845h-3.38a.845.845,0,0,1-.845-.845v-3.38a.845.845,0,0,1,.845-.845h3.38a.845.845,0,0,1,.845.845Zm-3.38-9.3h1.69v-1.69h-1.69Zm3.38.845a.845.845,0,0,1-.845.845h-3.38a.845.845,0,0,1-.845-.845v-3.38a.845.845,0,0,1,.845-.845h3.38a.845.845,0,0,1,.845.845ZM11.832,31.269h1.69v-1.69h-1.69Zm3.38.845a.845.845,0,0,1-.845.845h-3.38a.845.845,0,0,1-.845-.845v-3.38a.845.845,0,0,1,.845-.845h3.38a.845.845,0,0,1,.845.845Zm-3.38-9.3h1.69v-1.69h-1.69Zm3.38.845a.845.845,0,0,1-.845.845h-3.38a.845.845,0,0,1-.845-.845v-3.38a.845.845,0,0,1,.845-.845h3.38a.845.845,0,0,1,.845.845ZM37.185,5.916a.845.845,0,0,0,1.69,0V2.535a.845.845,0,0,0-1.69,0Zm-1.69,0V2.535a2.535,2.535,0,0,1,5.071,0v3.38a2.535,2.535,0,0,1-5.071,0Zm-6.761,0a.845.845,0,1,0,1.69,0V2.535a.845.845,0,1,0-1.69,0Zm-1.69,0V2.535a2.535,2.535,0,0,1,5.071,0v3.38a2.535,2.535,0,0,1-5.071,0Zm-6.761,0a.845.845,0,0,0,1.69,0V2.535a.845.845,0,0,0-1.69,0Zm-1.69,0V2.535a2.535,2.535,0,0,1,5.071,0v3.38a2.535,2.535,0,0,1-5.071,0Zm-6.761,0a.845.845,0,0,0,1.69,0V2.535a.845.845,0,1,0-1.69,0Zm-1.69,0V2.535a2.535,2.535,0,1,1,5.071,0v3.38a2.535,2.535,0,0,1-5.071,0ZM40.813,45.884a.845.845,0,1,0,1.195,1.195l5.071-5.071a.843.843,0,0,0,.248-.6V14.367a.845.845,0,0,0-.845-.845H4.226a.845.845,0,0,0-.845.845V43.946a3.384,3.384,0,0,0,3.38,3.38H38.03a.845.845,0,0,0,.845-.845V41.411a.9.9,0,0,1,.845-.845H43.1a.845.845,0,1,0,0-1.69h-3.38a2.6,2.6,0,0,0-2.535,2.535v4.226H6.761a1.692,1.692,0,0,1-1.69-1.69V15.212H45.636V41.061ZM46.481,1.69H43.1a.845.845,0,0,0,0,1.69h3.38a2.786,2.786,0,0,1,2.535,2.535V46.481a2.786,2.786,0,0,1-2.535,2.535H4.226A2.786,2.786,0,0,1,1.69,46.481V11.832H46.481a.845.845,0,1,0,0-1.69H.845A.845.845,0,0,0,0,10.987V46.481a4.451,4.451,0,0,0,4.226,4.226H46.481a4.451,4.451,0,0,0,4.226-4.226V5.916A4.451,4.451,0,0,0,46.481,1.69ZM0,7.606V5.916A4.451,4.451,0,0,1,4.226,1.69h3.38a.845.845,0,0,1,0,1.69H4.226A2.786,2.786,0,0,0,1.69,5.916v1.69a.845.845,0,0,1-1.69,0Z" fill="#19d1d1" stroke="#19d1d1" stroke-width="0.5" fill-rule="evenodd"/>
    </g>
  </g>
</svg>
