<svg id="house" xmlns="http://www.w3.org/2000/svg" width="19.329" height="17.182" viewBox="0 0 19.329 17.182">
  <path id="Path_24012" data-name="Path 24012" d="M1.037,10.628H2.529v7.518a.537.537,0,0,0,.537.537h14.2a.537.537,0,0,0,.537-.537V10.628h1.493a.537.537,0,0,0,.354-.94L10.52,1.634a.537.537,0,0,0-.709,0L.683,9.689a.537.537,0,0,0,.354.94ZM3.066,9.554H2.457l7.709-6.8,7.709,6.8h-.609a.537.537,0,0,0-.537.537v7.518H3.6V10.091a.537.537,0,0,0-.537-.537Z" transform="translate(-0.501 -1.501)" fill="#19d1d1" fill-rule="evenodd"/>
  <path id="Path_24013" data-name="Path 24013" d="M11.019,11.5H8.3a1.089,1.089,0,0,0-1.089,1.089v4.356A1.089,1.089,0,0,0,8.3,18.033h2.722a1.089,1.089,0,0,0,1.089-1.089V12.589A1.089,1.089,0,0,0,11.019,11.5ZM8.3,16.944V12.589h2.722v4.356Z" transform="translate(-0.038 -0.851)" fill="#19d1d1" fill-rule="evenodd"/>
</svg>
