<svg xmlns="http://www.w3.org/2000/svg" width="21.666" height="11.358" viewBox="0 0 21.666 11.358">
  <path id="Path_25433" data-name="Path 25433" d="M21.658,3.022a.605.605,0,0,0-.67-.525l-3.174.388L17.532.526a.6.6,0,1,0-1.2.145l.286,2.358L4.9,4.457,4.609,2.1a.6.6,0,1,0-1.2.145L3.7,4.6.526,4.99A.6.6,0,0,0,.6,6.189c.025,0,8.206-1,8.206-1A2.11,2.11,0,0,0,8.989,7l-1.1,3.583a.6.6,0,0,0,.572.775h4.721a.6.6,0,0,0,.482-.243.585.585,0,0,0,.091-.533L12.659,7a2.136,2.136,0,0,0-.043-2.279l8.51-1.036A.589.589,0,0,0,21.658,3.022ZM10.83,4.957a.942.942,0,1,1-.942.942A.942.942,0,0,1,10.83,4.957Zm-1.547,5.2.7-2.286a2.208,2.208,0,0,0,1.692,0l.7,2.286Z" transform="translate(0.003 0.003)" fill="#19d1d1"/>
</svg>
