<svg id="Group_1925" data-name="Group 1925" xmlns="http://www.w3.org/2000/svg" width="83.904" height="80.887" viewBox="0 0 83.904 80.887">
  <ellipse id="Ellipse_107" data-name="Ellipse 107" cx="40.443" cy="40.443" rx="40.443" ry="40.443" transform="translate(1.509 0)" fill="#032746"/>
  <path id="sea-turtle" d="M62.39.289A7.874,7.874,0,0,0,59.337,2.76c.7,2.942-.7,6.126-1.817,8.407,2.961-.09,8.091.946,10.441-.345,2.809-1.546,5.343-6.936,4.549-9.563C69.641.546,64.832-.517,62.39.289ZM39.6,1.574l-.26,1.891a15,15,0,0,1,5.144,2.177,6.012,6.012,0,0,1,1.878-4.1A48.364,48.364,0,0,0,39.6,1.574Zm29.507.3c-2.152,1.2-4.259,2.056-5.251,3.362A3.09,3.09,0,0,1,62.543,2.1,10.578,10.578,0,0,1,69.107,1.874Zm-32.316,0a42.851,42.851,0,0,0-4.915.916c1.649.015,3.343.075,4.747.225ZM47.964,3.765c-1.267,2.553-.473,4.294.55,6.291a49.67,49.67,0,0,0,3.511-7.161A4.71,4.71,0,0,0,47.964,3.765ZM55,2.835C46.1,26.763,21.51,40.452,0,38.846c.183,5.494,9.226,3.167,12.51,2.567,7.962-1.5,18.236-4.953,25.593-11.2a77.209,77.209,0,0,0,14.99-16.692c1.13-2.462,4.412-7.04,3.664-9.863C56.513,2.985,55.673,2.985,55,2.835ZM27.25,5.748A31.5,31.5,0,0,1,31.631,8.78a10.237,10.237,0,0,1,2.488-3.244A56.825,56.825,0,0,0,27.25,5.748Zm10.93.225c-2.824,1.591-3.893,3.032-4.335,4.548a48.124,48.124,0,0,1,4.595,5.434C38.3,12.4,41.462,9.336,44.057,8.75A11.319,11.319,0,0,0,38.18,5.973Zm-15.479.9a22.206,22.206,0,0,0-.153,5.674,10.729,10.729,0,0,1,5.923-2.732A15.216,15.216,0,0,0,22.7,6.874ZM19.77,8.405a44.608,44.608,0,0,0-4.854,7.235,14.025,14.025,0,0,1,5.236-1.216,16.288,16.288,0,0,1-.382-6.019Zm22.76,3.873c-1.969,1.771-1.313,4.713-.809,6.815a51.338,51.338,0,0,0,6.121-7.926c-1.771.03-3.954.075-5.312,1.111ZM23.2,16.09a25.481,25.481,0,0,0,1.633,8.676c2.351-4.953,6.335-7.55,11.418-7.145a54.71,54.71,0,0,0-4.183-5.013c-3.755-.3-6.946.18-8.869,3.482Zm-9.815-3.317a44.468,44.468,0,0,0-4.6,4.833,5.476,5.476,0,0,1,1.71.48C11.353,16.451,12.311,14.619,13.389,12.773Zm7.068,4.308c-4.274.075-5.923,1.681-8.145,3.633a29.2,29.2,0,0,0-.783,9.081c2.7-3.377,6.761-5.3,10.715-4.1a28.6,28.6,0,0,1-1.786-8.616ZM30.623,21.6a11.132,11.132,0,0,0-4.2,7.625l-.214,1.411A54.882,54.882,0,0,0,39.63,21.194C36.516,19.993,33.264,19.8,30.623,21.6Zm-24.38-.54a38.969,38.969,0,0,0-3.9,7.55,6.472,6.472,0,0,1,6.562,2.642,31.193,31.193,0,0,1,.612-10.642A3.023,3.023,0,0,0,6.243,21.059Zm45.293-.5c-1.343,1.756-2.778,3.467-4.289,5.1a9.785,9.785,0,0,1-.229,7.926c-1.435,2.837-3.816,5.059-5.633,9.126-.763,1.786-1.725,9.382.55,9.5C49.14,48.153,57.246,38.7,57.658,30.846c-1.007-4.218-3.4-7.28-6.121-10.282ZM16.946,28.654a11.126,11.126,0,0,0-5.3,6.86,53.214,53.214,0,0,0,13.528-4.368C22.655,28.564,20.029,27.138,16.946,28.654ZM3.6,31.071C.94,31.7.681,33.878.321,36.144a44.368,44.368,0,0,0,7.974-.15c-.6-2.222-2.322-4.908-4.692-4.923Zm15.633,11.5c-1.465.42-2.9.8-4.3,1.111C13.71,45.841,11.8,48.8,11.514,51.3A21.4,21.4,0,0,0,13.13,58.27c7.068-4.908,7.907-9.817,6.106-15.7Z" transform="translate(13.108 7.766) rotate(13)" fill="#19d1d1"/>
</svg>
