<svg xmlns="http://www.w3.org/2000/svg" width="56.066" height="52.253" viewBox="0 0 56.066 52.253">
  <g id="library-outline" transform="translate(1.25 1.25)">
    <rect id="Rectangle_2963" data-name="Rectangle 2963" width="7.652" height="43.999" rx="3.826" transform="translate(0 5.739)" fill="none" stroke="#19d1d1" stroke-linejoin="round" stroke-width="2.5"/>
    <path id="Path_24018" data-name="Path 24018" d="M112,224h15.3M112,245.043h15.3" transform="translate(-102.435 -202.957)" fill="none" stroke="#19d1d1" stroke-linecap="round" stroke-linejoin="round" stroke-width="2.5"/>
    <rect id="Rectangle_2964" data-name="Rectangle 2964" width="15.304" height="36.347" rx="7.652" transform="translate(9.565 13.391)" fill="none" stroke="#19d1d1" stroke-linejoin="round" stroke-width="2.5"/>
    <rect id="Rectangle_2965" data-name="Rectangle 2965" width="11.478" height="49.738" rx="5.739" transform="translate(26.782 0)" fill="none" stroke="#19d1d1" stroke-linejoin="round" stroke-width="2.5"/>
    <path id="Path_24019" data-name="Path 24019" d="M370.991,96.015l-4.83.508a2.475,2.475,0,0,0-2.144,2.762l4.175,38.45a2.5,2.5,0,0,0,2.689,2.253l4.83-.508a2.475,2.475,0,0,0,2.144-2.762l-4.169-38.444A2.5,2.5,0,0,0,370.991,96.015Z" transform="translate(-324.307 -90.263)" fill="none" stroke="#19d1d1" stroke-linejoin="round" stroke-width="2.5"/>
  </g>
</svg>
