<svg xmlns="http://www.w3.org/2000/svg" width="17.818" height="18.022" viewBox="0 0 17.818 18.022">
  <path id="Path_25429" data-name="Path 25429" d="M16.622,1.431A4.2,4.2,0,0,0,14.234.262,5.742,5.742,0,0,0,11.6.524,1.978,1.978,0,0,0,8.286,1.979a1.923,1.923,0,0,0,.115.662A7.141,7.141,0,0,0,6.549,6.481h0l-.268,2.2A7.827,7.827,0,0,1,4.188,13.1l-.109.115-.009-.009a.315.315,0,0,0-.442,0L.116,16.721a.315.315,0,0,0,0,.442l.766.768a.313.313,0,0,0,.442,0l3.516-3.513a.313.313,0,0,0,0-.442l-.015-.015a7.774,7.774,0,0,1,4.8-2.282l1.369-.13c.183-.006.368-.018.554-.041a7.224,7.224,0,0,0,4.137-2.117A7.2,7.2,0,0,0,17.8,5.256,4.488,4.488,0,0,0,16.622,1.431ZM1.1,17.269l-.327-.327,3.074-3.074.327.327ZM11.369,1.2A1.351,1.351,0,0,1,11.4,2.724a1.341,1.341,0,0,1-.25-.783A1.32,1.32,0,0,1,11.369,1.2ZM9.673.76a1.352,1.352,0,0,1,.592-.135A1.37,1.37,0,0,1,10.9.78a1.977,1.977,0,0,0,.038,2.373,1.359,1.359,0,0,1-1.307.024A1.984,1.984,0,0,0,9.673.76Zm-.483.395a1.357,1.357,0,0,1-.029,1.608,1.35,1.35,0,0,1-.25-.786A1.332,1.332,0,0,1,9.19,1.154ZM5.348,12.678a8.488,8.488,0,0,0,1.51-3.642,4.07,4.07,0,0,0,.866,1.293,4,4,0,0,0,1.184.819A8.407,8.407,0,0,0,5.348,12.678Zm11.833-7.5a6.575,6.575,0,0,1-1.937,3.772,6.575,6.575,0,0,1-3.772,1.937,3.876,3.876,0,0,1-3.307-1A3.858,3.858,0,0,1,7.158,6.642,6.409,6.409,0,0,1,8.725,3.215a1.465,1.465,0,0,0,.144.159,1.979,1.979,0,0,0,3.377-1.4,1.967,1.967,0,0,0-.23-.927,4.119,4.119,0,0,1,4.169.821A3.9,3.9,0,0,1,17.181,5.179Z" transform="translate(-0.025)" fill="#19d1d1"/>
</svg>
