<svg xmlns="http://www.w3.org/2000/svg" width="16.711" height="19.098" viewBox="0 0 16.711 19.098">
  <path id="Icon_awesome-calendar-alt" data-name="Icon awesome-calendar-alt" d="M0,17.308A1.791,1.791,0,0,0,1.79,19.1h13.13a1.791,1.791,0,0,0,1.79-1.79V7.162H0ZM11.936,10a.449.449,0,0,1,.448-.448h1.492a.449.449,0,0,1,.448.448v1.492a.449.449,0,0,1-.448.448H12.384a.449.449,0,0,1-.448-.448Zm0,4.775a.449.449,0,0,1,.448-.448h1.492a.449.449,0,0,1,.448.448v1.492a.449.449,0,0,1-.448.448H12.384a.449.449,0,0,1-.448-.448ZM7.162,10a.449.449,0,0,1,.448-.448H9.1A.449.449,0,0,1,9.549,10v1.492a.449.449,0,0,1-.448.448H7.609a.449.449,0,0,1-.448-.448Zm0,4.775a.449.449,0,0,1,.448-.448H9.1a.449.449,0,0,1,.448.448v1.492a.449.449,0,0,1-.448.448H7.609a.449.449,0,0,1-.448-.448ZM2.387,10a.449.449,0,0,1,.448-.448H4.327A.449.449,0,0,1,4.775,10v1.492a.449.449,0,0,1-.448.448H2.835a.449.449,0,0,1-.448-.448Zm0,4.775a.449.449,0,0,1,.448-.448H4.327a.449.449,0,0,1,.448.448v1.492a.449.449,0,0,1-.448.448H2.835a.449.449,0,0,1-.448-.448ZM14.921,2.387H13.13V.6a.6.6,0,0,0-.6-.6H11.34a.6.6,0,0,0-.6.6v1.79H5.968V.6a.6.6,0,0,0-.6-.6H4.178a.6.6,0,0,0-.6.6v1.79H1.79A1.791,1.791,0,0,0,0,4.178v1.79H16.711V4.178A1.791,1.791,0,0,0,14.921,2.387Z" fill="#fff"/>
</svg>
