<svg id="Group_2254" data-name="Group 2254" xmlns="http://www.w3.org/2000/svg" width="23.867" height="13.312" viewBox="0 0 23.867 13.312">
  <path id="Path_25386" data-name="Path 25386" d="M4.322.033A3.818,3.818,0,0,0,2.613.2C2.592.206,2.57.21,2.548.219a.382.382,0,0,1-.065.022A3.784,3.784,0,0,0,1.915.51L1.855.544C1.837.557,1.815.566,1.8.579A3.828,3.828,0,0,0,3.325,7.618a3.775,3.775,0,0,0,1.834-.213h0A3.825,3.825,0,0,0,4.322.033Zm-3.53,3.4A3.07,3.07,0,0,1,2.128,1.282a.4.4,0,0,1,.056-.035.4.4,0,0,1,.056-.035A2.964,2.964,0,0,1,2.809.943C2.83.935,2.852.93,2.874.922S2.917.909,2.939.9A3.007,3.007,0,0,1,4.218.8,3.059,3.059,0,1,1,.792,3.428Z" transform="translate(15.277 5.649) rotate(-7)" fill="#19d1d1" fill-rule="evenodd"/>
  <g id="Group_2246" data-name="Group 2246" transform="translate(0 0)">
    <path id="Path_25400" data-name="Path 25400" d="M6.616,1.216a.5.5,0,0,0-.048-.048.5.5,0,0,0-.048-.048A3.624,3.624,0,0,0,6.039.713.634.634,0,0,0,5.983.674.634.634,0,0,0,5.926.635a3.784,3.784,0,0,0-1.609-.6A3.826,3.826,0,0,0,2.375,7.366h0a3.748,3.748,0,0,0,.945.252,3.833,3.833,0,0,0,4.072-2.45A.382.382,0,0,0,7.414,5.1a.382.382,0,0,0,.022-.065,4.065,4.065,0,0,0,.152-.611A.335.335,0,0,0,7.6,4.361a.12.12,0,0,0,0-.039c0-.009,0-.017,0-.026A3.769,3.769,0,0,0,6.616,1.216Zm.252,2.893a.335.335,0,0,1-.009.065c0,.013,0,.03,0,.043a.039.039,0,0,1,0,.022,3.154,3.154,0,0,1-.152.611.382.382,0,0,0-.022.065c-.009.022-.017.043-.026.061A3.057,3.057,0,1,1,4.218.783a2.957,2.957,0,0,1,1.21.434c.017.013.039.022.056.035s.039.026.056.039a3.072,3.072,0,0,1,.481.408.5.5,0,0,0,.048.048.459.459,0,0,1,.043.052A3.065,3.065,0,0,1,6.867,4.109Z" transform="translate(0 5.524) rotate(-7)" fill="#19d1d1" fill-rule="evenodd"/>
    <path id="Path_25387" data-name="Path 25387" d="M6.365,1.986A3.1,3.1,0,0,0,4.3.789,3.216,3.216,0,0,0,3.889.763,3.028,3.028,0,0,0,2.978.9a.382.382,0,0,0-.065.022c-.022.009-.043.013-.065.022a2.964,2.964,0,0,0-.568.269c-.017.013-.039.022-.056.035s-.039.026-.056.039a3.128,3.128,0,0,0-.75,4.51A3.1,3.1,0,0,0,3.486,7a3.216,3.216,0,0,0,.408.026A3.126,3.126,0,0,0,6.365,1.986ZM6.851,4.28A3,3,0,0,1,3.889,6.887,2.986,2.986,0,0,1,1.521,5.716,2.98,2.98,0,0,1,.927,3.5a3.016,3.016,0,0,1,1.3-2.095c.017-.013.039-.026.056-.039a.4.4,0,0,1,.056-.035A2.964,2.964,0,0,1,2.9,1.067c.022-.009.043-.013.065-.022s.043-.013.065-.022A2.979,2.979,0,0,1,6.257,2.069,2.985,2.985,0,0,1,6.851,4.28ZM6.365,1.986A3.1,3.1,0,0,0,4.3.789,3.216,3.216,0,0,0,3.889.763,3.028,3.028,0,0,0,2.978.9a.382.382,0,0,0-.065.022c-.022.009-.043.013-.065.022a2.964,2.964,0,0,0-.568.269c-.017.013-.039.022-.056.035s-.039.026-.056.039a3.128,3.128,0,0,0-.75,4.51A3.1,3.1,0,0,0,3.486,7a3.216,3.216,0,0,0,.408.026A3.126,3.126,0,0,0,6.365,1.986ZM6.851,4.28A3,3,0,0,1,3.889,6.887,2.986,2.986,0,0,1,1.521,5.716,2.98,2.98,0,0,1,.927,3.5a3.016,3.016,0,0,1,1.3-2.095c.017-.013.039-.026.056-.039a.4.4,0,0,1,.056-.035A2.964,2.964,0,0,1,2.9,1.067c.022-.009.043-.013.065-.022s.043-.013.065-.022A2.979,2.979,0,0,1,6.257,2.069,2.985,2.985,0,0,1,6.851,4.28ZM6.365,1.986A3.1,3.1,0,0,0,4.3.789,3.216,3.216,0,0,0,3.889.763,3.028,3.028,0,0,0,2.978.9a.382.382,0,0,0-.065.022c-.022.009-.043.013-.065.022a2.964,2.964,0,0,0-.568.269c-.017.013-.039.022-.056.035s-.039.026-.056.039a3.128,3.128,0,0,0-.75,4.51A3.1,3.1,0,0,0,3.486,7a3.216,3.216,0,0,0,.408.026A3.126,3.126,0,0,0,6.365,1.986ZM6.851,4.28A3,3,0,0,1,3.889,6.887,2.986,2.986,0,0,1,1.521,5.716,2.98,2.98,0,0,1,.927,3.5a3.016,3.016,0,0,1,1.3-2.095c.017-.013.039-.026.056-.039a.4.4,0,0,1,.056-.035A2.964,2.964,0,0,1,2.9,1.067c.022-.009.043-.013.065-.022s.043-.013.065-.022A2.979,2.979,0,0,1,6.257,2.069,2.985,2.985,0,0,1,6.851,4.28ZM6.365,1.986A3.1,3.1,0,0,0,4.3.789,3.216,3.216,0,0,0,3.889.763,3.028,3.028,0,0,0,2.978.9a.382.382,0,0,0-.065.022c-.022.009-.043.013-.065.022a2.964,2.964,0,0,0-.568.269c-.017.013-.039.022-.056.035s-.039.026-.056.039a3.128,3.128,0,0,0-.75,4.51A3.1,3.1,0,0,0,3.486,7a3.216,3.216,0,0,0,.408.026A3.126,3.126,0,0,0,6.365,1.986ZM6.851,4.28A3,3,0,0,1,3.889,6.887,2.986,2.986,0,0,1,1.521,5.716,2.98,2.98,0,0,1,.927,3.5a3.016,3.016,0,0,1,1.3-2.095c.017-.013.039-.026.056-.039a.4.4,0,0,1,.056-.035A2.964,2.964,0,0,1,2.9,1.067c.022-.009.043-.013.065-.022s.043-.013.065-.022A2.979,2.979,0,0,1,6.257,2.069,2.985,2.985,0,0,1,6.851,4.28ZM6.365,1.986A3.1,3.1,0,0,0,4.3.789,3.216,3.216,0,0,0,3.889.763,3.028,3.028,0,0,0,2.978.9a.382.382,0,0,0-.065.022c-.022.009-.043.013-.065.022a2.964,2.964,0,0,0-.568.269c-.017.013-.039.022-.056.035s-.039.026-.056.039a3.128,3.128,0,0,0-.75,4.51A3.1,3.1,0,0,0,3.486,7a3.216,3.216,0,0,0,.408.026A3.126,3.126,0,0,0,6.365,1.986ZM6.851,4.28A3,3,0,0,1,3.889,6.887,2.986,2.986,0,0,1,1.521,5.716,2.98,2.98,0,0,1,.927,3.5a3.016,3.016,0,0,1,1.3-2.095c.017-.013.039-.026.056-.039a.4.4,0,0,1,.056-.035A2.964,2.964,0,0,1,2.9,1.067c.022-.009.043-.013.065-.022s.043-.013.065-.022A2.979,2.979,0,0,1,6.257,2.069,2.985,2.985,0,0,1,6.851,4.28ZM6.365,1.986A3.1,3.1,0,0,0,4.3.789,3.216,3.216,0,0,0,3.889.763,3.028,3.028,0,0,0,2.978.9a.382.382,0,0,0-.065.022c-.022.009-.043.013-.065.022a2.964,2.964,0,0,0-.568.269c-.017.013-.039.022-.056.035s-.039.026-.056.039a3.128,3.128,0,0,0-.75,4.51A3.1,3.1,0,0,0,3.486,7a3.216,3.216,0,0,0,.408.026A3.126,3.126,0,0,0,6.365,1.986ZM6.851,4.28A3,3,0,0,1,3.889,6.887,2.986,2.986,0,0,1,1.521,5.716,2.98,2.98,0,0,1,.927,3.5a3.016,3.016,0,0,1,1.3-2.095c.017-.013.039-.026.056-.039a.4.4,0,0,1,.056-.035A2.964,2.964,0,0,1,2.9,1.067c.022-.009.043-.013.065-.022s.043-.013.065-.022A2.979,2.979,0,0,1,6.257,2.069,2.985,2.985,0,0,1,6.851,4.28ZM6.365,1.986A3.1,3.1,0,0,0,4.3.789,3.216,3.216,0,0,0,3.889.763,3.028,3.028,0,0,0,2.978.9a.382.382,0,0,0-.065.022c-.022.009-.043.013-.065.022a2.964,2.964,0,0,0-.568.269c-.017.013-.039.022-.056.035s-.039.026-.056.039a3.128,3.128,0,0,0-.75,4.51A3.1,3.1,0,0,0,3.486,7a3.216,3.216,0,0,0,.408.026A3.126,3.126,0,0,0,6.365,1.986ZM6.851,4.28A3,3,0,0,1,3.889,6.887,2.986,2.986,0,0,1,1.521,5.716,2.98,2.98,0,0,1,.927,3.5a3.016,3.016,0,0,1,1.3-2.095c.017-.013.039-.026.056-.039a.4.4,0,0,1,.056-.035A2.964,2.964,0,0,1,2.9,1.067c.022-.009.043-.013.065-.022s.043-.013.065-.022A2.979,2.979,0,0,1,6.257,2.069,2.985,2.985,0,0,1,6.851,4.28ZM6.365,1.986A3.1,3.1,0,0,0,4.3.789,3.216,3.216,0,0,0,3.889.763,3.028,3.028,0,0,0,2.978.9a.382.382,0,0,0-.065.022c-.022.009-.043.013-.065.022a2.964,2.964,0,0,0-.568.269c-.017.013-.039.022-.056.035s-.039.026-.056.039a3.128,3.128,0,0,0-.75,4.51A3.1,3.1,0,0,0,3.486,7a3.216,3.216,0,0,0,.408.026A3.126,3.126,0,0,0,6.365,1.986ZM6.851,4.28A3,3,0,0,1,3.889,6.887,2.986,2.986,0,0,1,1.521,5.716,2.98,2.98,0,0,1,.927,3.5a3.016,3.016,0,0,1,1.3-2.095c.017-.013.039-.026.056-.039a.4.4,0,0,1,.056-.035A2.964,2.964,0,0,1,2.9,1.067c.022-.009.043-.013.065-.022s.043-.013.065-.022A2.979,2.979,0,0,1,6.257,2.069,2.985,2.985,0,0,1,6.851,4.28ZM6.365,1.986A3.1,3.1,0,0,0,4.3.789,3.216,3.216,0,0,0,3.889.763,3.028,3.028,0,0,0,2.978.9a.382.382,0,0,0-.065.022c-.022.009-.043.013-.065.022a2.964,2.964,0,0,0-.568.269c-.017.013-.039.022-.056.035s-.039.026-.056.039a3.128,3.128,0,0,0-.75,4.51A3.1,3.1,0,0,0,3.486,7a3.216,3.216,0,0,0,.408.026A3.126,3.126,0,0,0,6.365,1.986ZM6.851,4.28A3,3,0,0,1,3.889,6.887,2.986,2.986,0,0,1,1.521,5.716,2.98,2.98,0,0,1,.927,3.5a3.016,3.016,0,0,1,1.3-2.095c.017-.013.039-.026.056-.039a.4.4,0,0,1,.056-.035A2.964,2.964,0,0,1,2.9,1.067c.022-.009.043-.013.065-.022s.043-.013.065-.022A2.979,2.979,0,0,1,6.257,2.069,2.985,2.985,0,0,1,6.851,4.28ZM6.365,1.986A3.1,3.1,0,0,0,4.3.789,3.216,3.216,0,0,0,3.889.763,3.028,3.028,0,0,0,2.978.9a.382.382,0,0,0-.065.022c-.022.009-.043.013-.065.022a2.964,2.964,0,0,0-.568.269c-.017.013-.039.022-.056.035s-.039.026-.056.039a3.128,3.128,0,0,0-.75,4.51A3.1,3.1,0,0,0,3.486,7a3.216,3.216,0,0,0,.408.026A3.126,3.126,0,0,0,6.365,1.986ZM6.851,4.28A3,3,0,0,1,3.889,6.887,2.986,2.986,0,0,1,1.521,5.716,2.98,2.98,0,0,1,.927,3.5a3.016,3.016,0,0,1,1.3-2.095c.017-.013.039-.026.056-.039a.4.4,0,0,1,.056-.035A2.964,2.964,0,0,1,2.9,1.067c.022-.009.043-.013.065-.022s.043-.013.065-.022A2.979,2.979,0,0,1,6.257,2.069,2.985,2.985,0,0,1,6.851,4.28Zm.117-2.758A3.862,3.862,0,0,0,4.392.035,3.99,3.99,0,0,0,3.885,0a3.934,3.934,0,0,0-1.24.2C2.623.213,2.6.217,2.579.226a.382.382,0,0,1-.065.022,3.784,3.784,0,0,0-.568.269A.642.642,0,0,0,1.89.551c-.017.013-.039.022-.056.035A3.892,3.892,0,0,0,.805,6.258c.078.1.156.2.243.286h0a3.848,3.848,0,0,0,2.333,1.2,3.99,3.99,0,0,0,.507.035,3.8,3.8,0,0,0,1.488-.3A3.888,3.888,0,0,0,6.968,1.522ZM7.61,4.38A3.774,3.774,0,0,1,5.069,7.459a3.674,3.674,0,0,1-1.18.191A3.714,3.714,0,0,1,1.317,6.631a3.948,3.948,0,0,1-.4-.447A3.756,3.756,0,0,1,1.894.716C1.911.7,1.933.694,1.95.681s.039-.022.056-.035A4,4,0,0,1,2.575.377.382.382,0,0,1,2.64.356C2.662.347,2.683.343,2.7.334A3.747,3.747,0,0,1,6.864,1.609,3.714,3.714,0,0,1,7.61,4.38ZM4.3.789A3.216,3.216,0,0,0,3.889.763,3.028,3.028,0,0,0,2.978.9a.382.382,0,0,0-.065.022c-.022.009-.043.013-.065.022a2.964,2.964,0,0,0-.568.269c-.017.013-.039.022-.056.035s-.039.026-.056.039a3.128,3.128,0,0,0-.75,4.51A3.1,3.1,0,0,0,3.486,7a3.216,3.216,0,0,0,.408.026A3.129,3.129,0,0,0,4.3.789ZM6.851,4.28A3,3,0,0,1,3.889,6.887,2.986,2.986,0,0,1,1.521,5.716,2.98,2.98,0,0,1,.927,3.5a3.016,3.016,0,0,1,1.3-2.095c.017-.013.039-.026.056-.039a.4.4,0,0,1,.056-.035A2.964,2.964,0,0,1,2.9,1.067c.022-.009.043-.013.065-.022s.043-.013.065-.022A2.979,2.979,0,0,1,6.257,2.069,2.985,2.985,0,0,1,6.851,4.28ZM6.365,1.986A3.1,3.1,0,0,0,4.3.789,3.216,3.216,0,0,0,3.889.763,3.028,3.028,0,0,0,2.978.9a.382.382,0,0,0-.065.022c-.022.009-.043.013-.065.022a2.964,2.964,0,0,0-.568.269c-.017.013-.039.022-.056.035s-.039.026-.056.039a3.128,3.128,0,0,0-.75,4.51A3.1,3.1,0,0,0,3.486,7a3.216,3.216,0,0,0,.408.026A3.126,3.126,0,0,0,6.365,1.986ZM6.851,4.28A3,3,0,0,1,3.889,6.887,2.986,2.986,0,0,1,1.521,5.716,2.98,2.98,0,0,1,.927,3.5a3.016,3.016,0,0,1,1.3-2.095c.017-.013.039-.026.056-.039a.4.4,0,0,1,.056-.035A2.964,2.964,0,0,1,2.9,1.067c.022-.009.043-.013.065-.022s.043-.013.065-.022A2.979,2.979,0,0,1,6.257,2.069,2.985,2.985,0,0,1,6.851,4.28ZM6.365,1.986A3.1,3.1,0,0,0,4.3.789,3.216,3.216,0,0,0,3.889.763,3.028,3.028,0,0,0,2.978.9a.382.382,0,0,0-.065.022c-.022.009-.043.013-.065.022a2.964,2.964,0,0,0-.568.269c-.017.013-.039.022-.056.035s-.039.026-.056.039a3.128,3.128,0,0,0-.75,4.51A3.1,3.1,0,0,0,3.486,7a3.216,3.216,0,0,0,.408.026A3.126,3.126,0,0,0,6.365,1.986ZM6.851,4.28A3,3,0,0,1,3.889,6.887,2.986,2.986,0,0,1,1.521,5.716,2.98,2.98,0,0,1,.927,3.5a3.016,3.016,0,0,1,1.3-2.095c.017-.013.039-.026.056-.039a.4.4,0,0,1,.056-.035A2.964,2.964,0,0,1,2.9,1.067c.022-.009.043-.013.065-.022s.043-.013.065-.022A2.979,2.979,0,0,1,6.257,2.069,2.985,2.985,0,0,1,6.851,4.28ZM6.365,1.986A3.1,3.1,0,0,0,4.3.789,3.216,3.216,0,0,0,3.889.763,3.028,3.028,0,0,0,2.978.9a.382.382,0,0,0-.065.022c-.022.009-.043.013-.065.022a2.964,2.964,0,0,0-.568.269c-.017.013-.039.022-.056.035s-.039.026-.056.039a3.128,3.128,0,0,0-.75,4.51A3.1,3.1,0,0,0,3.486,7a3.216,3.216,0,0,0,.408.026A3.126,3.126,0,0,0,6.365,1.986ZM6.851,4.28A3,3,0,0,1,3.889,6.887,2.986,2.986,0,0,1,1.521,5.716,2.98,2.98,0,0,1,.927,3.5a3.016,3.016,0,0,1,1.3-2.095c.017-.013.039-.026.056-.039a.4.4,0,0,1,.056-.035A2.964,2.964,0,0,1,2.9,1.067c.022-.009.043-.013.065-.022s.043-.013.065-.022A2.979,2.979,0,0,1,6.257,2.069,2.985,2.985,0,0,1,6.851,4.28ZM6.365,1.986A3.1,3.1,0,0,0,4.3.789,3.216,3.216,0,0,0,3.889.763,3.028,3.028,0,0,0,2.978.9a.382.382,0,0,0-.065.022c-.022.009-.043.013-.065.022a2.964,2.964,0,0,0-.568.269c-.017.013-.039.022-.056.035s-.039.026-.056.039a3.128,3.128,0,0,0-.75,4.51A3.1,3.1,0,0,0,3.486,7a3.216,3.216,0,0,0,.408.026A3.126,3.126,0,0,0,6.365,1.986ZM6.851,4.28A3,3,0,0,1,3.889,6.887,2.986,2.986,0,0,1,1.521,5.716,2.98,2.98,0,0,1,.927,3.5a3.016,3.016,0,0,1,1.3-2.095c.017-.013.039-.026.056-.039a.4.4,0,0,1,.056-.035A2.964,2.964,0,0,1,2.9,1.067c.022-.009.043-.013.065-.022s.043-.013.065-.022A2.979,2.979,0,0,1,6.257,2.069,2.985,2.985,0,0,1,6.851,4.28ZM6.365,1.986A3.1,3.1,0,0,0,4.3.789,3.216,3.216,0,0,0,3.889.763,3.028,3.028,0,0,0,2.978.9a.382.382,0,0,0-.065.022c-.022.009-.043.013-.065.022a2.964,2.964,0,0,0-.568.269c-.017.013-.039.022-.056.035s-.039.026-.056.039a3.128,3.128,0,0,0-.75,4.51A3.1,3.1,0,0,0,3.486,7a3.216,3.216,0,0,0,.408.026A3.126,3.126,0,0,0,6.365,1.986ZM6.851,4.28A3,3,0,0,1,3.889,6.887,2.986,2.986,0,0,1,1.521,5.716,2.98,2.98,0,0,1,.927,3.5a3.016,3.016,0,0,1,1.3-2.095c.017-.013.039-.026.056-.039a.4.4,0,0,1,.056-.035A2.964,2.964,0,0,1,2.9,1.067c.022-.009.043-.013.065-.022s.043-.013.065-.022A2.979,2.979,0,0,1,6.257,2.069,2.985,2.985,0,0,1,6.851,4.28ZM6.365,1.986A3.1,3.1,0,0,0,4.3.789,3.216,3.216,0,0,0,3.889.763,3.028,3.028,0,0,0,2.978.9a.382.382,0,0,0-.065.022c-.022.009-.043.013-.065.022a2.964,2.964,0,0,0-.568.269c-.017.013-.039.022-.056.035s-.039.026-.056.039a3.128,3.128,0,0,0-.75,4.51A3.1,3.1,0,0,0,3.486,7a3.216,3.216,0,0,0,.408.026A3.126,3.126,0,0,0,6.365,1.986ZM6.851,4.28A3,3,0,0,1,3.889,6.887,2.986,2.986,0,0,1,1.521,5.716,2.98,2.98,0,0,1,.927,3.5a3.016,3.016,0,0,1,1.3-2.095c.017-.013.039-.026.056-.039a.4.4,0,0,1,.056-.035A2.964,2.964,0,0,1,2.9,1.067c.022-.009.043-.013.065-.022s.043-.013.065-.022A2.979,2.979,0,0,1,6.257,2.069,2.985,2.985,0,0,1,6.851,4.28ZM6.365,1.986A3.1,3.1,0,0,0,4.3.789,3.216,3.216,0,0,0,3.889.763,3.028,3.028,0,0,0,2.978.9a.382.382,0,0,0-.065.022c-.022.009-.043.013-.065.022a2.964,2.964,0,0,0-.568.269c-.017.013-.039.022-.056.035s-.039.026-.056.039a3.128,3.128,0,0,0-.75,4.51A3.1,3.1,0,0,0,3.486,7a3.216,3.216,0,0,0,.408.026A3.126,3.126,0,0,0,6.365,1.986ZM6.851,4.28A3,3,0,0,1,3.889,6.887,2.986,2.986,0,0,1,1.521,5.716,2.98,2.98,0,0,1,.927,3.5a3.016,3.016,0,0,1,1.3-2.095c.017-.013.039-.026.056-.039a.4.4,0,0,1,.056-.035A2.964,2.964,0,0,1,2.9,1.067c.022-.009.043-.013.065-.022s.043-.013.065-.022A2.979,2.979,0,0,1,6.257,2.069,2.985,2.985,0,0,1,6.851,4.28ZM6.365,1.986A3.1,3.1,0,0,0,4.3.789,3.216,3.216,0,0,0,3.889.763,3.028,3.028,0,0,0,2.978.9a.382.382,0,0,0-.065.022c-.022.009-.043.013-.065.022a2.964,2.964,0,0,0-.568.269c-.017.013-.039.022-.056.035s-.039.026-.056.039a3.128,3.128,0,0,0-.75,4.51A3.1,3.1,0,0,0,3.486,7a3.216,3.216,0,0,0,.408.026A3.126,3.126,0,0,0,6.365,1.986ZM6.851,4.28A3,3,0,0,1,3.889,6.887,2.986,2.986,0,0,1,1.521,5.716,2.98,2.98,0,0,1,.927,3.5a3.016,3.016,0,0,1,1.3-2.095c.017-.013.039-.026.056-.039a.4.4,0,0,1,.056-.035A2.964,2.964,0,0,1,2.9,1.067c.022-.009.043-.013.065-.022s.043-.013.065-.022A2.979,2.979,0,0,1,6.257,2.069,2.985,2.985,0,0,1,6.851,4.28Z" transform="translate(15.204 5.59) rotate(-7)" fill="#19d1d1"/>
    <path id="Path_25388" data-name="Path 25388" d="M15.873,7.047,14.607,4.363l-.03-.061-.03-.061-.269-.572-.03-.061-.03-.061-.963-2.038h0l-.091-.191,0-.009,0-.009v0s0-.013-.009-.017a.1.1,0,0,0-.013-.022s0-.009-.009-.017a.461.461,0,0,0-.039-.048l-.013-.013s-.009,0-.009-.009-.013-.013-.022-.017l0,0h0s-.013-.009-.017-.013-.009,0-.013-.009a.013.013,0,0,0-.009,0l-.026-.013a.288.288,0,0,0-.1-.03h-.009l-.234-.03-.3-.039L12.243,1,12.169.993,4.827.017,4.749.009,4.671,0,4.7.074l.078.009.078.009,7.347.963.1.273-.347.33L4.979.742,7.165,6.193l.026.065.026.065.173.429a.328.328,0,0,1-.052.325l-.013.013h0c-.009.009-.022.017-.03.026s-.013.009-.017.013a.328.328,0,0,1-.078.039.015.015,0,0,0-.009,0h0a.047.047,0,0,1-.022,0c-.009,0-.017,0-.026,0H7.108a.12.12,0,0,1-.039,0,.026.026,0,0,1-.017,0,.016.016,0,0,1-.013,0h0l-.208-.052h0l-.1-.026L4.081,6.44a4.2,4.2,0,0,0,.152-.611l2.359.581L4.389.963l-1.266,1.5a3.325,3.325,0,0,0-.481-.408L4.021.421,4.068.364,4.116.308,4.086.239,4.038.295,3.99.351l-1.4,1.665-.043.052L2.5,2.121l-.412.486-.043.052L2,2.711.091,4.979a.383.383,0,0,0-.074.364A.387.387,0,0,0,.291,5.6l2.88.707.065.017L3.3,6.34l.616.152.065.017.065.017L6.779,7.2l.23.056h0s.009,0,.017,0,.013,0,.022,0,.03,0,.043,0h.043c.013,0,.026,0,.039,0h0s.013,0,.017,0h0s.009,0,.013,0,.009,0,.017,0l.03-.013s.013,0,.017-.009a.152.152,0,0,0,.035-.022s.013-.009.017-.013l0,0s0,0,.009,0a.115.115,0,0,0,.026-.022l.026-.026a.372.372,0,0,0,.087-.169.385.385,0,0,0-.017-.221l-.182-.455L7.23,6.158,5.087.824l6.8.893.087.013.087.013.473.061.026,0,.013.026.1.2.03.065.03.065.807,1.713.03.061L13.6,4l.269.572.03.061.03.061,1.262,2.684a.38.38,0,0,0,.507.182A.388.388,0,0,0,15.873,7.047ZM4.368,1.093l2.1,5.235L4.229,5.777l-.065-.017L4.1,5.742,3.483,5.59l-.065-.017-.065-.017L1.072,5,2.585,3.2l.043-.052L2.672,3.1l.408-.486.043-.052.043-.052Z" transform="translate(3.245 3.716) rotate(-7)" fill="#19d1d1" fill-rule="evenodd"/>
    <path id="Path_25390" data-name="Path 25390" d="M6.4.41V.428a.026.026,0,0,1,0,.017v0h0a.016.016,0,0,1,0,.013s0,.013,0,.017,0,.013,0,.017,0,.009,0,.013,0,0,0,0,0,.009,0,.013v0s0,.013-.009.017L6.345.575a.188.188,0,0,0-.017.03s-.009.013-.013.017A.132.132,0,0,1,6.28.657l-.169.16h0L5.95.97,5.9,1.017l-.052.048L.729,5.931.555,6.1c-.009.009-.017.013-.026.022s0,0-.009,0l0,0A.06.06,0,0,1,.5,6.139l-.035.022s-.013,0-.017.009l-.03.013s-.009,0-.017,0-.009,0-.013,0h0s-.013,0-.017,0h0a.12.12,0,0,1-.039,0H.3a.328.328,0,0,1-.065,0,.039.039,0,0,1-.022,0s-.009,0-.017,0h0a.386.386,0,0,1-.191-.108L0,6.07l.208.052h0s.009,0,.013,0,.013,0,.017,0,.026,0,.039,0H.317c.009,0,.017,0,.026,0a.188.188,0,0,0,.022,0h0s.009,0,.009,0a.22.22,0,0,0,.078-.039A.06.06,0,0,0,.468,6.07.189.189,0,0,0,.5,6.044h0l.013-.013a.307.307,0,0,0,.052-.325L.39,5.276.364,5.211l.052-.052.052-.048L5.1.727h0L5.165.666,5.226.605,5.512.332,5.564.28,5.616.228,5.742.107A.347.347,0,0,1,5.833.042.418.418,0,0,1,6.063,0a.472.472,0,0,1,.1.03l.026.013A.015.015,0,0,1,6.2.05s.009,0,.013.009.013.009.017.013h0l0,0c.009,0,.013.013.022.017S6.271.1,6.271.1l.013.013a.378.378,0,0,1,.039.048A.023.023,0,0,1,6.332.18c0,.009.009.013.013.022s0,.013.009.017v0a.211.211,0,0,1,.017.048c0,.013,0,.022.009.035A.345.345,0,0,1,6.4.41Z" transform="translate(10.128 3.938) rotate(-7)" fill="#19d1d1" fill-rule="evenodd"/>
    <path id="Path_25392" data-name="Path 25392" d="M9.511,3.89,2.541,2.975,4.727,8.426l.026.065.026.065.173.429a.328.328,0,0,1-.052.325l-.013.013h0c-.009.009-.022.017-.03.026s-.013.009-.017.013a.328.328,0,0,1-.078.039.015.015,0,0,0-.009,0h0a.047.047,0,0,1-.022,0c-.009,0-.017,0-.026,0H4.671a.12.12,0,0,1-.039,0,.026.026,0,0,1-.017,0,.016.016,0,0,1-.013,0h0L4.389,9.35h0l-.1-.026L1.644,8.674A4.2,4.2,0,0,0,1.8,8.062l2.359.581L1.952,3.2.685,4.7A3.325,3.325,0,0,0,.2,4.289L1.583,2.654,1.631,2.6l.048-.056-.03-.069L1.618,2.4,1,.976.967.9.937.828l-.069,0L.789.815.82.889h0L.85.958.39.893A.446.446,0,0,1,0,.39.453.453,0,0,1,.451,0,.286.286,0,0,1,.512,0l2.65.347a.446.446,0,0,1,.386.5.453.453,0,0,1-.447.39.307.307,0,0,1-.061,0L1.887,1.089l-.03-.074h0L1.826.941,1.748.932l.03.074.03.074L1.73,1.071,2.2,2.16l.03.074.03.074.078.009.078.009,7.347.963.1.273Z" transform="translate(5.392 1.202) rotate(-7)" fill="#19d1d1"/>
    <path id="Path_25393" data-name="Path 25393" d="M2.683,3.386a.379.379,0,0,1-.312-.256L1.612.927.333.762A.385.385,0,0,1,0,.333.385.385,0,0,1,.432,0L1.946.2a.381.381,0,0,1,.312.256L3.1,2.883a.383.383,0,0,1-.239.486.341.341,0,0,1-.173.017Z" transform="translate(13.065 0.943) rotate(-7)" fill="#19d1d1" fill-rule="evenodd"/>
  </g>
</svg>
