<svg id="_7521071_ecology_trees_environment_nature_icon" data-name="7521071_ecology_trees_environment_nature_icon" xmlns="http://www.w3.org/2000/svg" width="75.636" height="50.76" viewBox="0 0 75.636 50.76">
  <path id="Path_23981" data-name="Path 23981" d="M16.834,43.732V58.148a1.244,1.244,0,1,0,2.488,0V43.726a16.876,16.876,0,0,0,10.972-5.108A22.028,22.028,0,0,0,35.5,44.235V58.148a1.244,1.244,0,1,0,2.488,0V44.214c.458-.345.893-.728,1.327-1.114a11.8,11.8,0,0,0,15.528.769V58.148a1.244,1.244,0,1,0,2.488,0V42A11.951,11.951,0,1,0,67.646,21.015,11.927,11.927,0,0,0,45.161,18.67a22.016,22.016,0,0,0-7.695-9.808,1.242,1.242,0,0,0-1.437,0A22.02,22.02,0,0,0,30.29,14.9,17.027,17.027,0,1,0,16.832,43.732Zm2.488-2.5V36.019l5.559-4.832,2.52,1.643a1.1,1.1,0,0,0,.259.077c.145.5.3.993.477,1.481a20.572,20.572,0,0,0,.875,1.929,14.4,14.4,0,0,1-9.689,4.917Zm7.623-11.841c.007.061.017.122.026.183l-.134-.088ZM56.009,14.189a9.563,9.563,0,0,1,9.385,8.024c0,.016.014.029.016.045a3.917,3.917,0,0,0,.182.447,1.284,1.284,0,0,0,.154.164,1.264,1.264,0,0,0,.175.17,1.246,1.246,0,0,0,.206.1,1.183,1.183,0,0,0,.239.1l.038.015A9.5,9.5,0,1,1,57.692,39a1.117,1.117,0,0,0-.175-.128,1.267,1.267,0,0,0-.113-.1c-.016-.009-.034-.007-.051-.016l-.018-.014V33.823l6.236-7.655A1.246,1.246,0,0,0,61.639,24.6l-4.3,5.284v-4.16a1.244,1.244,0,1,0-2.488,0V35.776L49.924,29.73A1.246,1.246,0,1,0,47.992,31.3l6.854,8.42v.658a9.382,9.382,0,0,1-7.357,3.549A9.5,9.5,0,0,1,45.5,25.141l.039-.006a9.869,9.869,0,0,1,1.95-.2,1.245,1.245,0,0,0,0-2.491c-.291,0-.577.022-.86.044A9.485,9.485,0,0,1,56.009,14.189Zm-19.261-2.76a19.468,19.468,0,0,1,7.136,11.611,11.912,11.912,0,0,0-5.892,4.088V22.185a1.244,1.244,0,1,0-2.488,0V24.1l-2.433-2.743a1.245,1.245,0,1,0-1.862,1.652l4.3,4.843V41.006a19.5,19.5,0,0,1-3.935-5.063v0l0,0a18.482,18.482,0,0,1-1.1-2.42,19.359,19.359,0,0,1-1.2-6.474,1.232,1.232,0,0,0,0-.615A19.242,19.242,0,0,1,30.465,20a18.557,18.557,0,0,1,1.1-2.421l0-.007,0-.007a19.544,19.544,0,0,1,5.179-6.134Zm-18.668.782A14.435,14.435,0,0,1,29.009,17.2a20.573,20.573,0,0,0-.877,1.935,21.806,21.806,0,0,0-1.337,7.094l-7.473,6.5V22.185a1.244,1.244,0,1,0-2.488,0v2.108L11.2,20.134a1.244,1.244,0,1,0-1.477,2l.832.615L8.978,23.8a1.244,1.244,0,0,0,.688,2.281,1.23,1.23,0,0,0,.689-.208l2.329-1.548,4.149,3.063V41.244A14.542,14.542,0,0,1,18.08,12.213Z" transform="translate(-1.04 -8.633)" fill="#19d1d1"/>
</svg>
