<svg xmlns="http://www.w3.org/2000/svg" width="14.738" height="16.843" viewBox="0 0 14.738 16.843">
  <path id="Icon_awesome-calendar-plus" data-name="Icon awesome-calendar-plus" d="M14.343,5.264H.395A.4.4,0,0,1,0,4.869V3.684A1.579,1.579,0,0,1,1.579,2.105H3.158V.395A.4.4,0,0,1,3.553,0H4.869a.4.4,0,0,1,.395.395V2.105H9.474V.395A.4.4,0,0,1,9.869,0h1.316a.4.4,0,0,1,.395.395V2.105h1.579a1.579,1.579,0,0,1,1.579,1.579V4.869A.4.4,0,0,1,14.343,5.264ZM.395,6.316H14.343a.4.4,0,0,1,.395.395v8.553a1.579,1.579,0,0,1-1.579,1.579H1.579A1.579,1.579,0,0,1,0,15.264V6.711A.4.4,0,0,1,.395,6.316Zm10.4,4.606a.4.4,0,0,0-.395-.395H8.422V8.553a.4.4,0,0,0-.395-.395H6.711a.4.4,0,0,0-.395.395v1.974H4.342a.4.4,0,0,0-.395.395v1.316a.4.4,0,0,0,.395.395H6.316v1.974A.4.4,0,0,0,6.711,15H8.027a.4.4,0,0,0,.395-.395V12.633H10.4a.4.4,0,0,0,.395-.395Z" fill="#084980"/>
</svg>
