<svg xmlns="http://www.w3.org/2000/svg" width="16.806" height="19.486" viewBox="0 0 16.806 19.486">
  <path id="Link" d="M48.768,32.7v-.042a.554.554,0,0,0-.146-.36c-.012-.014-.02-.028-.031-.042a.559.559,0,0,0-.048-.033.55.55,0,0,0-.357-.139h-.04l-5.536.057a.617.617,0,0,0,0,1.232l4.067-.046L38.3,42.036a.6.6,0,0,0,.855.849l8.385-8.713.028,4.2a.618.618,0,0,0,1.234,0ZM46.682,49.721a.616.616,0,0,1-.613.617L33.84,50.327a.615.615,0,0,1-.613-.617V35.18a.615.615,0,0,1,.613-.617h7V33.33H33.227A1.23,1.23,0,0,0,32,34.563V50.327a1.231,1.231,0,0,0,1.227,1.234l13.455.011a1.23,1.23,0,0,0,1.227-1.234V40.254H46.682Z" transform="translate(-32 -32.085)" fill="#084980"/>
</svg>
