<svg xmlns="http://www.w3.org/2000/svg" width="16.743" height="19.412" viewBox="0 0 16.743 19.412">
  <path id="PDF" d="M13.5,13.079c-.263-.262-1.526-.262-1.526-.262a4.359,4.359,0,0,0,1.351.3.937.937,0,0,0,.195-.011C13.518,13.1,13.5,13.079,13.5,13.079Zm-7.044.171a18.59,18.59,0,0,1,3.094-.876c-.023-.011-.141-.1-.141-.1a2.025,2.025,0,0,1-.176-.148,6.754,6.754,0,0,1-1.385-1.907,16.934,16.934,0,0,1-.9,2.135C6.616,12.958,6.452,13.25,6.452,13.25ZM7.807,6.09a4.13,4.13,0,0,0-.023,1.43c.011-.076.076-.478.076-.478,0-.034.076-.466.076-.466a.36.36,0,0,1,.042-.087.035.035,0,0,1-.011-.023.022.022,0,0,0,0-.015s0-.015,0-.015a.7.7,0,0,0-.141-.391.04.04,0,0,1-.011.023V6.09ZM3.468,16.056a6.509,6.509,0,0,0,1.492-1.71,6.806,6.806,0,0,0-.954.91A3.819,3.819,0,0,0,3.468,16.056ZM9.745,11.6a10.157,10.157,0,0,0,.916.607,12.429,12.429,0,0,1,1.274-.076c1.6,0,1.931.531,1.931.531a.613.613,0,0,1,.023.565.04.04,0,0,1-.011.023l-.023.023v.011c-.065.413-.775.413-.775.413a5.556,5.556,0,0,1-1.255-.216,9.207,9.207,0,0,1-1.416-.573,22.063,22.063,0,0,0-4.273.9c-1.667,2.84-2.637,2.84-2.637,2.84a.723.723,0,0,1-.305-.076l-.263-.129c-.011-.011-.065-.053-.065-.053C2.755,16.283,2.8,16,2.8,16a2.962,2.962,0,0,1,.61-.99A6.382,6.382,0,0,1,4.85,13.966a.179.179,0,0,1,.252.064.066.066,0,0,1,.023.042c.569-.921,1.168-2.135,1.168-2.135A18.565,18.565,0,0,0,7.425,9.1a9.6,9.6,0,0,1-.332-1.729,4.388,4.388,0,0,1,.072-1.38.513.513,0,0,1,.458-.432h.24a.5.5,0,0,1,.382.163c.195.228.1.736.1.736a.31.31,0,0,1-.042.087.341.341,0,0,1,.011.087v.326a15.076,15.076,0,0,1-.153,2.082A5.812,5.812,0,0,0,9.745,11.6Zm5.605,6.424V6.936H10.813a1.15,1.15,0,0,1-.74-.3A1.139,1.139,0,0,1,9.768,5.9V1.388H1.4V18.031H15.35ZM11.164,1.475V5.548h4.1a1.242,1.242,0,0,0-.24-.444l-3.411-3.39A1.438,1.438,0,0,0,11.164,1.475ZM16,4.118a3.009,3.009,0,0,1,.523.823,2.726,2.726,0,0,1,.217.952v12.48a1.137,1.137,0,0,1-.305.736,1.154,1.154,0,0,1-.74.3H1.045a1.135,1.135,0,0,1-.74-.3A1.139,1.139,0,0,1,0,18.376V1.039A1.137,1.137,0,0,1,.305.3a1.154,1.154,0,0,1,.74-.3h9.768a3.025,3.025,0,0,1,.958.216,2.772,2.772,0,0,1,.828.52Z" fill="#084980"/>
</svg>
