<svg xmlns="http://www.w3.org/2000/svg" width="16.797" height="16.796" viewBox="0 0 16.797 16.796">
  <path id="Icon_open-magnifying-glass" data-name="Icon open-magnifying-glass" d="M7.282-.024a7.282,7.282,0,0,0,0,14.565,7.2,7.2,0,0,0,3.454-.853,2.081,2.081,0,0,0,.27.27l2.081,2.081a2.122,2.122,0,1,0,3-3L14,10.962a2.081,2.081,0,0,0-.333-.27,7.185,7.185,0,0,0,.916-3.454A7.29,7.29,0,0,0,7.3-.045Zm0,2.081a5.177,5.177,0,0,1,5.2,5.2,5.218,5.218,0,0,1-1.373,3.579l-.062.062a2.081,2.081,0,0,0-.27.27,5.207,5.207,0,0,1-3.516,1.311,5.2,5.2,0,1,1,0-10.4Z" transform="translate(0 0.045)" fill="#19d1d1"/>
</svg>
