<svg xmlns="http://www.w3.org/2000/svg" width="45" height="45" viewBox="0 0 45 45">
  <path id="Exclusion_5" data-name="Exclusion 5" d="M22.5,45A22.506,22.506,0,0,1,13.742,1.768,22.506,22.506,0,0,1,31.258,43.232,22.36,22.36,0,0,1,22.5,45ZM17.537,6.506a3.027,3.027,0,0,0-2.05.774,2.482,2.482,0,0,0,0,3.738L27.935,22.369,15.488,33.718a2.482,2.482,0,0,0,0,3.738,3.1,3.1,0,0,0,4.1,0L34.079,24.236a2.482,2.482,0,0,0,0-3.738L19.586,7.28A3.026,3.026,0,0,0,17.537,6.506Z" fill="#fff" opacity="0.606"/>
</svg>
