<svg xmlns="http://www.w3.org/2000/svg" width="45" height="45" viewBox="0 0 45 45">
  <path id="Exclusion_6" data-name="Exclusion 6" d="M22.5,0a22.506,22.506,0,0,0-8.758,43.232A22.506,22.506,0,0,0,31.258,1.768,22.36,22.36,0,0,0,22.5,0ZM17.537,38.494a3.027,3.027,0,0,1-2.05-.774,2.482,2.482,0,0,1,0-3.738L27.935,22.631,15.488,11.282a2.482,2.482,0,0,1,0-3.738,3.1,3.1,0,0,1,4.1,0L34.079,20.764a2.482,2.482,0,0,1,0,3.738L19.586,37.72A3.026,3.026,0,0,1,17.537,38.494Z" transform="translate(45 45) rotate(180)" fill="#fff" opacity="0.606"/>
</svg>
